<svg width="10" height="10" viewBox="0 0 10 10" fill="none" xmlns="http://www.w3.org/2000/svg">
<path fill-rule="evenodd" clip-rule="evenodd" d="M5 0C5.69011 0 6.33952 0.130207 6.94824 0.390625C7.55697 0.651043 8.08756 1.00748 8.54004 1.45996C8.99252 1.91244 9.34896 2.44303 9.60938 3.05176C9.86979 3.66048 10 4.30989 10 5C10 5.69011 9.86979 6.33952 9.60938 6.94824C9.34896 7.55697 8.99252 8.08756 8.54004 8.54004C8.08756 8.99252 7.55697 9.34896 6.94824 9.60938C6.33952 9.86979 5.69011 10 5 10C4.30989 10 3.66048 9.86979 3.05176 9.60938C2.44303 9.34896 1.91244 8.99252 1.45996 8.54004C1.00748 8.08756 0.651043 7.55697 0.390625 6.94824C0.130207 6.33952 0 5.69011 0 5C0 4.30989 0.130207 3.66048 0.390625 3.05176C0.651043 2.44303 1.00748 1.91244 1.45996 1.45996C1.91244 1.00748 2.44303 0.651043 3.05176 0.390625C3.66048 0.130207 4.30989 0 5 0ZM5 9.38477C5.60547 9.38477 6.1735 9.26921 6.7041 9.03809C7.2347 8.80696 7.69694 8.49284 8.09082 8.0957C8.4847 7.69857 8.7972 7.2347 9.02832 6.7041C9.25944 6.1735 9.375 5.60547 9.375 5C9.375 4.39453 9.25944 3.8265 9.02832 3.2959C8.7972 2.7653 8.4847 2.30306 8.09082 1.90918C7.69694 1.5153 7.2347 1.2028 6.7041 0.97168C6.1735 0.740559 5.60547 0.625 5 0.625C4.39453 0.625 3.8265 0.740559 3.2959 0.97168C2.7653 1.2028 2.30306 1.5153 1.90918 1.90918C1.5153 2.30306 1.2028 2.7653 0.97168 3.2959C0.740559 3.8265 0.625 4.39453 0.625 5C0.625 5.60547 0.740559 6.1735 0.97168 6.7041C1.2028 7.2347 1.5153 7.69857 1.90918 8.0957C2.30306 8.49284 2.7653 8.80696 3.2959 9.03809C3.8265 9.26921 4.39453 9.38477 5 9.38477ZM6.76758 3.23242C6.82617 3.29102 6.85547 3.36426 6.85547 3.45215C6.85547 3.54004 6.82617 3.61328 6.76758 3.67188L5.43945 5L6.76758 6.32812C6.82617 6.38672 6.85547 6.45996 6.85547 6.54785C6.85547 6.63574 6.82617 6.70898 6.76758 6.76758C6.70898 6.82617 6.63574 6.85547 6.54785 6.85547C6.45996 6.85547 6.38672 6.82617 6.32812 6.76758L5 5.43945L3.67188 6.76758C3.61328 6.82617 3.54004 6.85547 3.45215 6.85547C3.36426 6.85547 3.29102 6.82617 3.23242 6.76758C3.17383 6.70898 3.14453 6.63574 3.14453 6.54785C3.14453 6.45996 3.17383 6.38672 3.23242 6.32812L4.56055 5L3.23242 3.67188C3.17383 3.61328 3.14453 3.54004 3.14453 3.45215C3.14453 3.36426 3.17383 3.29102 3.23242 3.23242C3.29102 3.17383 3.36426 3.14453 3.45215 3.14453C3.54004 3.14453 3.61328 3.17383 3.67188 3.23242L5 4.56055L6.32812 3.23242C6.38672 3.17383 6.45996 3.14453 6.54785 3.14453C6.63574 3.14453 6.70898 3.17383 6.76758 3.23242Z" fill="#D03602"/>
</svg>
