<svg width="99" height="26" viewBox="0 0 99 26" fill="none" xmlns="http://www.w3.org/2000/svg">
<path fill-rule="evenodd" clip-rule="evenodd" d="M4.25708 13.832C4.25708 14.504 4.37841 15.0733 4.62108 15.54C4.86374 16.0067 5.18574 16.3847 5.58708 16.674C5.98841 16.9633 6.45974 17.178 7.00108 17.318C7.54241 17.458 8.10241 17.528 8.68108 17.528C9.07308 17.528 9.49307 17.4953 9.94108 17.43C10.3891 17.3647 10.8091 17.2387 11.2011 17.052C11.5931 16.8653 11.9197 16.6087 12.1811 16.282C12.4424 15.9553 12.5731 15.54 12.5731 15.036C12.5731 14.4947 12.4004 14.056 12.0551 13.72C11.7097 13.384 11.2571 13.104 10.6971 12.88C10.1371 12.656 9.50241 12.46 8.79308 12.292C8.08374 12.124 7.36508 11.9373 6.63708 11.732C5.89041 11.5453 5.16241 11.3167 4.45308 11.046C3.74374 10.7753 3.10908 10.4253 2.54908 9.996C1.98907 9.56666 1.53641 9.03 1.19108 8.386C0.845742 7.742 0.673077 6.96267 0.673077 6.048C0.673077 5.02133 0.892408 4.13 1.33108 3.374C1.76975 2.618 2.34374 1.988 3.05308 1.484C3.76241 0.979997 4.56507 0.606668 5.46108 0.364C6.35708 0.121332 7.25307 0 8.14908 0C9.19442 0 10.1977 0.116665 11.1591 0.35C12.1204 0.583334 12.9744 0.961331 13.7211 1.484C14.4677 2.00667 15.0604 2.674 15.4991 3.486C15.9377 4.298 16.1571 5.28266 16.1571 6.44H11.9011C11.8637 5.84266 11.7377 5.348 11.5231 4.956C11.3084 4.564 11.0237 4.256 10.6691 4.032C10.3144 3.808 9.90841 3.64933 9.45108 3.556C8.99374 3.46267 8.49441 3.416 7.95308 3.416C7.59841 3.416 7.24375 3.45333 6.88908 3.528C6.53441 3.60267 6.21241 3.73333 5.92308 3.92C5.63374 4.10667 5.39574 4.34 5.20908 4.62C5.02241 4.9 4.92908 5.25466 4.92908 5.684C4.92908 6.076 5.00374 6.39333 5.15308 6.636C5.30241 6.87867 5.59641 7.10267 6.03508 7.308C6.47375 7.51333 7.08041 7.71867 7.85508 7.924C8.62975 8.12933 9.6424 8.39067 10.8931 8.708C11.2664 8.78267 11.7844 8.918 12.4471 9.114C13.1097 9.31 13.7677 9.62266 14.4211 10.052C15.0744 10.4813 15.6391 11.0553 16.1151 11.774C16.5911 12.4927 16.8291 13.412 16.8291 14.532C16.8291 15.4467 16.6517 16.296 16.2971 17.08C15.9424 17.864 15.4151 18.5407 14.7151 19.11C14.0151 19.6793 13.1471 20.1227 12.1111 20.44C11.0751 20.7573 9.87575 20.916 8.51308 20.916C7.41174 20.916 6.34308 20.7807 5.30708 20.51C4.27107 20.2393 3.35641 19.8147 2.56308 19.236C1.76974 18.6573 1.13975 17.92 0.673077 17.024C0.206408 16.128 -0.0175898 15.064 0.00107694 13.832H4.25708ZM18.8451 10.444C18.9011 9.51067 19.1344 8.73601 19.5451 8.12001C19.9558 7.504 20.4784 7.00934 21.1131 6.63601C21.7478 6.26267 22.4618 5.99667 23.2551 5.83801C24.0484 5.67934 24.8464 5.60001 25.6491 5.60001C26.3771 5.60001 27.1144 5.65134 27.8611 5.75401C28.6078 5.85667 29.2891 6.05734 29.9051 6.35601C30.5211 6.65467 31.0251 7.07 31.4171 7.60201C31.8091 8.13401 32.0051 8.83867 32.0051 9.71601V17.248C32.0051 17.9013 32.0424 18.5267 32.1171 19.124C32.1918 19.7213 32.3224 20.1693 32.5091 20.468H28.4771C28.4024 20.244 28.3418 20.0153 28.2951 19.782C28.2484 19.5487 28.2158 19.3107 28.1971 19.068C27.5624 19.7213 26.8158 20.1787 25.9571 20.44C25.0984 20.7013 24.2211 20.832 23.3251 20.832C22.6344 20.832 21.9904 20.748 21.3931 20.58C20.7958 20.412 20.2731 20.1507 19.8251 19.796C19.3771 19.4413 19.0271 18.9933 18.7751 18.452C18.5231 17.9107 18.3971 17.2667 18.3971 16.52C18.3971 15.6987 18.5418 15.022 18.8311 14.49C19.1204 13.958 19.4938 13.5333 19.9511 13.216C20.4084 12.8987 20.9311 12.6607 21.5191 12.502C22.1071 12.3433 22.6998 12.2173 23.2971 12.124C23.8944 12.0307 24.4824 11.956 25.0611 11.9C25.6398 11.844 26.1531 11.76 26.6011 11.648C27.0491 11.536 27.4038 11.3727 27.6651 11.158C27.9264 10.9433 28.0478 10.6307 28.0291 10.22C28.0291 9.79067 27.9591 9.45001 27.8191 9.19801C27.6791 8.946 27.4924 8.75001 27.2591 8.61001C27.0258 8.47001 26.7551 8.37667 26.4471 8.33001C26.1391 8.28334 25.8078 8.26001 25.4531 8.26001C24.6691 8.26001 24.0531 8.428 23.6051 8.76401C23.1571 9.10001 22.8958 9.66 22.8211 10.444H18.8451ZM28.029 13.384C27.861 13.5333 27.651 13.65 27.399 13.734C27.147 13.818 26.8764 13.888 26.587 13.944C26.2977 14 25.9944 14.0467 25.677 14.084C25.3597 14.1213 25.0424 14.168 24.725 14.224C24.4264 14.28 24.1324 14.3547 23.843 14.448C23.5537 14.5413 23.3017 14.6673 23.087 14.826C22.8724 14.9847 22.6997 15.1853 22.569 15.428C22.4384 15.6707 22.373 15.9787 22.373 16.352C22.373 16.7067 22.4384 17.0053 22.569 17.248C22.6997 17.4907 22.877 17.682 23.101 17.822C23.325 17.962 23.5864 18.06 23.885 18.116C24.1837 18.172 24.4917 18.2 24.809 18.2C25.5931 18.2 26.1997 18.0693 26.629 17.808C27.0584 17.5467 27.3757 17.234 27.581 16.87C27.7864 16.506 27.9124 16.1373 27.959 15.764C28.0057 15.3907 28.029 15.092 28.029 14.868V13.384ZM34.9171 10.444C34.9731 9.51067 35.2064 8.73601 35.6171 8.12001C36.0278 7.504 36.5504 7.00934 37.1851 6.63601C37.8198 6.26267 38.5338 5.99667 39.3271 5.83801C40.1205 5.67934 40.9184 5.60001 41.7211 5.60001C42.4491 5.60001 43.1864 5.65134 43.9331 5.75401C44.6798 5.85667 45.3611 6.05734 45.9771 6.35601C46.5931 6.65467 47.0971 7.07 47.4891 7.60201C47.8811 8.13401 48.0771 8.83867 48.0771 9.71601V17.248C48.0771 17.9013 48.1144 18.5267 48.1891 19.124C48.2638 19.7213 48.3944 20.1693 48.5811 20.468H44.5491C44.4744 20.244 44.4138 20.0153 44.3671 19.782C44.3204 19.5487 44.2878 19.3107 44.2691 19.068C43.6344 19.7213 42.8878 20.1787 42.0291 20.44C41.1704 20.7013 40.2931 20.832 39.3971 20.832C38.7064 20.832 38.0625 20.748 37.4651 20.58C36.8678 20.412 36.3451 20.1507 35.8971 19.796C35.4491 19.4413 35.0991 18.9933 34.8471 18.452C34.5951 17.9107 34.4691 17.2667 34.4691 16.52C34.4691 15.6987 34.6138 15.022 34.9031 14.49C35.1925 13.958 35.5658 13.5333 36.0231 13.216C36.4805 12.8987 37.0031 12.6607 37.5911 12.502C38.1791 12.3433 38.7718 12.2173 39.3691 12.124C39.9665 12.0307 40.5544 11.956 41.1331 11.9C41.7118 11.844 42.2251 11.76 42.6731 11.648C43.1211 11.536 43.4758 11.3727 43.7371 11.158C43.9985 10.9433 44.1198 10.6307 44.1011 10.22C44.1011 9.79067 44.0311 9.45001 43.8911 9.19801C43.7511 8.946 43.5645 8.75001 43.3311 8.61001C43.0978 8.47001 42.8271 8.37667 42.5191 8.33001C42.2111 8.28334 41.8798 8.26001 41.5251 8.26001C40.7411 8.26001 40.1251 8.428 39.6771 8.76401C39.2291 9.10001 38.9678 9.66 38.8931 10.444H34.9171ZM44.1011 13.384C43.9331 13.5333 43.7231 13.65 43.4711 13.734C43.2191 13.818 42.9484 13.888 42.6591 13.944C42.3697 14 42.0664 14.0467 41.7491 14.084C41.4317 14.1213 41.1144 14.168 40.7971 14.224C40.4984 14.28 40.2044 14.3547 39.9151 14.448C39.6257 14.5413 39.3737 14.6673 39.1591 14.826C38.9444 14.9847 38.7717 15.1853 38.6411 15.428C38.5104 15.6707 38.4451 15.9787 38.4451 16.352C38.4451 16.7067 38.5104 17.0053 38.6411 17.248C38.7717 17.4907 38.9491 17.682 39.1731 17.822C39.3971 17.962 39.6584 18.06 39.9571 18.116C40.2557 18.172 40.5637 18.2 40.8811 18.2C41.6651 18.2 42.2717 18.0693 42.7011 17.808C43.1304 17.5467 43.4477 17.234 43.6531 16.87C43.8584 16.506 43.9844 16.1373 44.0311 15.764C44.0777 15.3907 44.1011 15.092 44.1011 14.868V13.384ZM54.5731 13.832C54.5731 14.504 54.6944 15.0733 54.9371 15.54C55.1798 16.0067 55.5018 16.3847 55.9031 16.674C56.3045 16.9633 56.7758 17.178 57.3171 17.318C57.8585 17.458 58.4184 17.528 58.9971 17.528C59.3891 17.528 59.8091 17.4953 60.2571 17.43C60.7051 17.3647 61.1251 17.2387 61.5171 17.052C61.9091 16.8653 62.2358 16.6087 62.4971 16.282C62.7585 15.9553 62.8891 15.54 62.8891 15.036C62.8891 14.4947 62.7165 14.056 62.3711 13.72C62.0258 13.384 61.5731 13.104 61.0131 12.88C60.4531 12.656 59.8185 12.46 59.1091 12.292C58.3998 12.124 57.6811 11.9373 56.9531 11.732C56.2064 11.5453 55.4785 11.3167 54.7691 11.046C54.0598 10.7753 53.4251 10.4253 52.8651 9.996C52.3051 9.56666 51.8525 9.03 51.5071 8.386C51.1618 7.742 50.9891 6.96267 50.9891 6.048C50.9891 5.02133 51.2084 4.13 51.6471 3.374C52.0858 2.618 52.6598 1.988 53.3691 1.484C54.0785 0.979997 54.8811 0.606668 55.7771 0.364C56.6731 0.121332 57.5691 0 58.4651 0C59.5105 0 60.5138 0.116665 61.4751 0.35C62.4365 0.583334 63.2904 0.961331 64.0371 1.484C64.7838 2.00667 65.3764 2.674 65.8151 3.486C66.2538 4.298 66.4731 5.28266 66.4731 6.44H62.2171C62.1798 5.84266 62.0538 5.348 61.8391 4.956C61.6244 4.564 61.3398 4.256 60.9851 4.032C60.6304 3.808 60.2245 3.64933 59.7671 3.556C59.3098 3.46267 58.8105 3.416 58.2691 3.416C57.9144 3.416 57.5598 3.45333 57.2051 3.528C56.8504 3.60267 56.5285 3.73333 56.2391 3.92C55.9498 4.10667 55.7118 4.34 55.5251 4.62C55.3384 4.9 55.2451 5.25466 55.2451 5.684C55.2451 6.076 55.3198 6.39333 55.4691 6.636C55.6185 6.87867 55.9124 7.10267 56.3511 7.308C56.7898 7.51333 57.3964 7.71867 58.1711 7.924C58.9458 8.12933 59.9584 8.39067 61.2091 8.708C61.5825 8.78267 62.1004 8.918 62.7631 9.114C63.4258 9.31 64.0838 9.62266 64.7371 10.052C65.3905 10.4813 65.9551 11.0553 66.4311 11.774C66.9071 12.4927 67.1451 13.412 67.1451 14.532C67.1451 15.4467 66.9678 16.296 66.6131 17.08C66.2584 17.864 65.7311 18.5407 65.0311 19.11C64.3311 19.6793 63.4631 20.1227 62.4271 20.44C61.3911 20.7573 60.1918 20.916 58.8291 20.916C57.7278 20.916 56.6591 20.7807 55.6231 20.51C54.5871 20.2393 53.6725 19.8147 52.8791 19.236C52.0858 18.6573 51.4558 17.92 50.9891 17.024C50.5224 16.128 50.2985 15.064 50.3171 13.832H54.5731ZM73.417 3.75201H69.441V0.476013H73.417V3.75201ZM69.441 5.992H73.417V20.468H69.441V5.992ZM77.421 8.65201H75.041V5.99201H77.421V4.87201C77.421 3.58401 77.8223 2.52935 78.625 1.70801C79.4277 0.886676 80.641 0.476013 82.265 0.476013C82.6197 0.476013 82.9743 0.490013 83.329 0.518013C83.6837 0.546013 84.029 0.569346 84.365 0.588013V3.55601C83.8983 3.50001 83.413 3.47201 82.909 3.47201C82.3677 3.47201 81.9803 3.59801 81.747 3.85001C81.5137 4.10201 81.397 4.52668 81.397 5.12401V5.99201H84.141V8.65201H81.397V20.468H77.421V8.65201ZM92.0171 22.26C91.5878 23.436 90.9904 24.276 90.2251 24.78C89.4598 25.284 88.3958 25.536 87.0331 25.536C86.6224 25.536 86.2164 25.522 85.8151 25.494C85.4138 25.466 85.0078 25.4333 84.5971 25.396V22.12C84.9704 22.1573 85.3531 22.1947 85.7451 22.232C86.1371 22.2693 86.5291 22.2787 86.9211 22.26C87.4438 22.204 87.8311 21.9987 88.0831 21.644C88.3351 21.2893 88.4611 20.8973 88.4611 20.468C88.4611 20.1507 88.4051 19.852 88.2931 19.572L83.2251 5.992H87.4531L90.7291 15.904H90.7851L93.9491 5.992H98.0651L92.0171 22.26Z" fill="#171C34"/>
</svg>
