<svg width="80" height="80" viewBox="0 0 80 80" fill="none" xmlns="http://www.w3.org/2000/svg">
<path d="M40 0C17.9086 0 0 15.5208 0 34.6667H80C80 15.5208 62.0914 0 40 0Z" transform="translate(0 45.3334)" fill="#0074E4"/>
<path d="M8.27587 7.22223C3.71229 7.22223 0 3.98209 0 0H2.75867C2.75867 2.38953 5.23375 4.33333 8.27591 4.33333C11.3181 4.33333 13.7931 2.38953 13.7931 0H16.5518C16.5517 3.98209 12.8394 7.22223 8.27587 7.22223Z" transform="translate(16.5518 67)" fill="white"/>
<path d="M8.27587 7.22223C3.71229 7.22223 0 3.98209 0 0H2.75867C2.75867 2.38953 5.23375 4.33333 8.27591 4.33333C11.3181 4.33333 13.7931 2.38953 13.7931 0H16.5518C16.5517 3.98209 12.8395 7.22223 8.27587 7.22223Z" transform="translate(46.8965 67)" fill="white"/>
<path d="M4 8C6.20914 8 8 6.20914 8 4C8 1.79086 6.20914 0 4 0C1.79086 0 0 1.79086 0 4C0 6.20914 1.79086 8 4 8Z" transform="translate(52 34.6666)" fill="#18BAEB"/>
<path d="M4 8C6.20914 8 8 6.20914 8 4C8 1.79086 6.20914 0 4 0C1.79086 0 0 1.79086 0 4C0 6.20914 1.79086 8 4 8Z" transform="translate(20 34.6666)" fill="#072A44"/>
<path d="M29.311 14.6667C32.183 12.5629 32.8856 8.56886 30.9039 5.61131C28.9222 2.65375 24.961 1.78464 21.9231 3.64087C20.7994 1.4085 18.5135 0 16.0143 0C13.515 0 11.2291 1.4085 10.1054 3.64087C7.06814 1.7966 3.11732 2.66919 1.13935 5.62116C-0.838624 8.57313 -0.143193 12.5589 2.71757 14.6667C-0.154476 16.7704 -0.857077 20.7645 1.12464 23.722C3.10636 26.6796 7.06754 27.5487 10.1054 25.6925C11.2291 27.9248 13.515 29.3333 16.0143 29.3333C18.5135 29.3333 20.7994 27.9248 21.9231 25.6925C24.9604 27.5368 28.9112 26.6642 30.8892 23.7122C32.8672 20.7602 32.1718 16.7744 29.311 14.6667Z" transform="translate(5.31909)" fill="#072A44"/>
<path d="M29.311 14.6667C32.183 12.5629 32.8856 8.56886 30.9039 5.61131C28.9222 2.65375 24.961 1.78464 21.9231 3.64087C20.7994 1.4085 18.5135 0 16.0143 0C13.515 0 11.2291 1.4085 10.1054 3.64087C7.06814 1.7966 3.11732 2.66919 1.13935 5.62116C-0.838624 8.57313 -0.143193 12.5589 2.71757 14.6667C-0.154476 16.7704 -0.857077 20.7645 1.12464 23.722C3.10636 26.6796 7.06754 27.5487 10.1054 25.6925C11.2291 27.9248 13.515 29.3333 16.0143 29.3333C18.5135 29.3333 20.7994 27.9248 21.9231 25.6925C24.9604 27.5368 28.9112 26.6642 30.8892 23.7122C32.8672 20.7602 32.1718 16.7744 29.311 14.6667Z" transform="translate(42.6523)" fill="#18BAEB"/>
<path d="M0 0H2.66667V13.3333H0V0Z" transform="translate(12 8)" fill="white"/>
<path d="M0 0H2.66667V10.6667H0V0Z" transform="translate(17.3334 10.6666)" fill="white"/>
<path d="M0 0H2.66667V6.66667H0V0Z" transform="translate(22.6666 14.6666)" fill="white"/>
<path d="M0 0H2.66667V4H0V0Z" transform="translate(28 17.3334)" fill="white"/>
<path d="M0 0H2.66667V13.3333H0V0Z" transform="translate(65.3334 8)" fill="white"/>
<path d="M0 0H2.66667V10.6667H0V0Z" transform="translate(60 10.6666)" fill="white"/>
<path d="M0 0H2.66667V6.66667H0V0Z" transform="translate(54.6666 14.6666)" fill="white"/>
<path d="M0 0H2.66667V4H0V0Z" transform="translate(49.3334 17.3334)" fill="white"/>
</svg>
