<svg width="39" height="30" viewBox="0 0 39 30" fill="none" xmlns="http://www.w3.org/2000/svg">
<path fill-rule="evenodd" clip-rule="evenodd" d="M23.1833 18.7209L13.4431 1.23074C12.9861 0.410309 12.3838 0 11.7812 0C11.1787 0 10.5764 0.410309 10.1194 1.23074L0.379639 18.7209C-0.534424 20.3617 0.259766 21.7047 2.14429 21.7047H21.4187C23.3032 21.7047 24.0972 20.3617 23.1833 18.7209ZM5.5708 17.8661C5.33423 17.8661 5.14258 17.675 5.14258 17.4395C5.14258 17.204 5.33423 17.013 5.5708 17.013C5.80713 17.013 5.99902 17.204 5.99902 17.4395C5.99902 17.675 5.80713 17.8661 5.5708 17.8661ZM7.23096 15.5126L11.9424 6.98254C12.0566 6.77618 11.981 6.51691 11.7737 6.4035C11.5669 6.28928 11.3057 6.36499 11.1919 6.57141L6.48047 15.1017C6.36621 15.3079 6.44189 15.5673 6.64917 15.6807C6.7146 15.7167 6.7854 15.7336 6.85522 15.7336C7.00635 15.7336 7.15308 15.6539 7.23096 15.5126Z" fill="#1892EB"/>
<path d="M10.7531 0C8.04017 0 5.53476 0.881591 3.50807 2.37102L9.09011 12.3852C9.82754 13.7082 9.88049 15.0923 9.23524 16.1824C8.58981 17.2725 7.34767 17.8977 5.82693 17.8977H0C2.06139 21.7032 6.10321 24.2898 10.7531 24.2898C17.4952 24.2898 22.9606 18.8524 22.9606 12.1449C22.9606 5.43763 17.4952 0 10.7531 0Z" transform="translate(15.5901 5.53976)" fill="#0074E4"/>
</svg>
