<svg width="77" height="80" viewBox="0 0 77 80" fill="none" xmlns="http://www.w3.org/2000/svg">
<path d="M76.8344 37.4257C76.6518 16.5767 59.6081 -0.177789 38.764 0.0014244C17.7365 0.0014244 0 16.7567 0 37.4259V48.0345H15.8968V67.9103H41.068V79.8358H76.8344V37.4257Z" transform="translate(0.000610352 0.00012207)" fill="#0074E4"/>
<path opacity="0.6" d="M8.61045 0C19.7089 10.9025 20.4671 19.0877 8.61045 30.4762C-2.48798 19.5737 -3.24606 11.3892 8.61045 0Z" transform="translate(35.2933 7.16077)" fill="white"/>
<path d="M0.0124207 0.00273129C15.5676 -0.137724 21.8902 5.11395 21.5572 21.5527C6.00203 21.693 -0.320087 16.442 0.0124207 0.00273129Z" transform="translate(23.8458 15.869)" fill="#072A44"/>
<path d="M6.62366 6.62526C2.96723 6.62095 0.00430538 3.65731 0 0H2.64946C2.64946 2.19545 4.42874 3.97516 6.62366 3.97516C8.81857 3.97516 10.5978 2.19545 10.5978 0H13.2473C13.243 3.65714 10.2801 6.62095 6.62366 6.62526Z" transform="translate(6.62427 32.134)" fill="white"/>
<path d="M21.5475 0.0124358C21.6879 15.5714 16.4375 21.8955 0.00273088 21.5624C-0.137691 6.00333 5.11222 -0.320318 21.5475 0.0124358Z" transform="translate(43.7264 15.8594)" fill="#18BAEB"/>
</svg>
