<svg width="80" height="80" viewBox="0 0 80 80" fill="none" xmlns="http://www.w3.org/2000/svg">
<path d="M26.5889 5.03379C26.5863 2.25276 24.9509 0 22.6197 0H22.3646C20.0782 0.191371 18.2904 2.02804 18.1869 4.29196L14.6363 22.3403L14.6367 22.4318C13.5855 21.7548 12.223 21.7783 11.1965 22.4914L1.15709 29.4662C0.431767 29.9702 0 30.7913 0 31.6672V44.6806H13.3056V42.2966L22.6541 36.4184C25.2426 34.4962 26.7193 31.4484 26.6112 28.2518L26.5889 5.03379Z" transform="translate(53.228 34.1729)" fill="#0074E4"/>
<path d="M0.0279864 5.03379C0.0306475 2.25276 1.66607 0 3.99722 0H4.25235C6.53876 0.191371 8.32653 2.02804 8.42998 4.29196L11.9806 22.3403L11.9803 22.4318C13.0314 21.7548 14.3939 21.7783 15.4204 22.4914L25.4598 29.4662C26.1852 29.9702 26.6169 30.7913 26.6169 31.6672V44.6806H13.3113V42.2966L3.96279 36.4184C1.37435 34.4962 -0.102409 31.4482 0.00553317 28.2516L0.0279864 5.03379Z" transform="translate(-6.10352e-05 34.1729)" fill="#0074E4"/>
<path d="M22.6195 44.6806C35.112 44.6806 45.2391 34.6785 45.2391 22.3403C45.2391 10.0021 35.112 0 22.6195 0C10.1271 0 0 10.0021 0 22.3403C0 34.6785 10.1271 44.6806 22.6195 44.6806Z" transform="translate(17.3028 18.4033)" fill="#072A44"/>
<path d="M6.65281 13.1413C10.3271 13.1413 13.3056 10.1996 13.3056 6.57067C13.3056 2.94179 10.3271 0 6.65281 0C2.97856 0 0 2.94179 0 6.57067C0 10.1996 2.97856 13.1413 6.65281 13.1413Z" transform="translate(53.2279 9.20435)" fill="#18BAEB"/>
<path d="M6.65281 13.1413C10.3271 13.1413 13.3056 10.1996 13.3056 6.57067C13.3056 2.94179 10.3271 0 6.65281 0C2.97856 0 0 2.94179 0 6.57067C0 10.1996 2.97856 13.1413 6.65281 13.1413Z" transform="translate(13.3111 9.20435)" fill="#18BAEB"/>
<path d="M6.65281 13.1413C10.3271 13.1413 13.3056 10.1996 13.3056 6.57067C13.3056 2.94179 10.3271 0 6.65281 0C2.97856 0 0 2.94179 0 6.57067C0 10.1996 2.97856 13.1413 6.65281 13.1413Z" transform="translate(33.2695 0.00537109)" fill="#18BAEB"/>
<path d="M3.19335 15.7696H0C0.0101455 7.06446 7.15277 0.0100203 15.9667 0V3.15392C8.91559 3.16197 3.2015 8.80552 3.19335 15.7696Z" transform="translate(22.625 22.3457)" fill="white"/>
</svg>
